<?xml version="1.0" encoding="utf-8"?>
<!-- Generator: Adobe Illustrator 16.0.4, SVG Export Plug-In . SVG Version: 6.00 Build 0)  -->
<!DOCTYPE svg PUBLIC "-//W3C//DTD SVG 1.1//EN" "http://www.w3.org/Graphics/SVG/1.1/DTD/svg11.dtd">
<svg version="1.1" id="Layer_1" xmlns="http://www.w3.org/2000/svg" xmlns:xlink="http://www.w3.org/1999/xlink" x="0px" y="0px"
	 width="150px" height="56.55px" viewBox="0 0 150 56.55" enable-background="new 0 0 150 56.55" xml:space="preserve">
<path fill="#21315B" d="M58.451,54.839c-0.263,0-0.474-0.21-0.474-0.473V5.9c0-0.261,0.211-0.475,0.474-0.475
	c0.262,0,0.475,0.214,0.475,0.475v48.467C58.926,54.629,58.713,54.839,58.451,54.839"/>
<path fill="#21315B" d="M14.969,42.477l-7.972-9.361H3.619v14.653H6.91v-9.342l7.949,9.342h3.4V33.116h-3.29V42.477z M46.553,33.117
	l-2.183,9.381l-2.292-9.381h-3.149l-2.331,9.276l-2.114-9.276h-3.448l3.813,14.65h3.388l2.238-9.269l2.272,9.269h3.329l0.033-0.126
	l3.838-14.523H46.553z"/>
<path fill="#21315B" d="M3.269,52.261v-0.012c0-1.269,0.972-2.345,2.339-2.345c0.79,0,1.276,0.22,1.743,0.617l-0.505,0.602
	c-0.352-0.299-0.694-0.486-1.271-0.486c-0.834,0-1.471,0.732-1.471,1.6v0.013c0,0.935,0.617,1.62,1.543,1.62
	c0.428,0,0.816-0.135,1.095-0.344v-0.849h-1.16v-0.694h1.93v1.907c-0.447,0.381-1.089,0.708-1.891,0.708
	C4.202,54.597,3.269,53.583,3.269,52.261"/>
<path fill="#21315B" d="M7.994,52.261v-0.012c0-1.277,0.985-2.345,2.377-2.345c1.394,0,2.365,1.057,2.365,2.332v0.013
	c0,1.275-0.982,2.348-2.378,2.348C8.966,54.597,7.994,53.538,7.994,52.261 M11.901,52.261v-0.012c0-0.881-0.642-1.613-1.542-1.613
	s-1.528,0.718-1.528,1.6v0.013c0,0.883,0.642,1.613,1.542,1.613C11.273,53.862,11.901,53.143,11.901,52.261"/>
<polygon fill="#21315B" points="12.68,49.982 13.56,49.982 14.927,53.468 16.29,49.982 17.149,49.982 15.264,54.55 14.563,54.55 "/>
<polygon fill="#21315B" points="17.686,49.982 21.05,49.982 21.05,50.694 18.482,50.694 18.482,51.874 20.758,51.874 20.758,52.588 
	18.482,52.588 18.482,53.805 21.083,53.805 21.083,54.517 17.686,54.517 "/>
<path fill="#21315B" d="M21.856,49.982h2.021c0.57,0,1.018,0.168,1.309,0.453c0.242,0.246,0.375,0.584,0.375,0.979v0.014
	c0,0.745-0.447,1.193-1.081,1.373l1.223,1.717h-0.939l-1.115-1.58h-0.997v1.58h-0.796V49.982z M23.818,52.23
	c0.571,0,0.935-0.298,0.935-0.76v-0.011c0-0.487-0.349-0.751-0.941-0.751h-1.16v1.522H23.818z"/>
<polygon fill="#21315B" points="26.265,49.982 27.002,49.982 29.432,53.116 29.432,49.982 30.217,49.982 30.217,54.517 
	29.549,54.517 27.048,51.288 27.048,54.517 26.265,54.517 "/>
<polygon fill="#21315B" points="31.025,49.982 31.874,49.982 33.255,52.126 34.636,49.982 35.484,49.982 35.484,54.517 
	34.685,54.517 34.685,51.265 33.255,53.402 33.227,53.402 31.812,51.276 31.812,54.517 31.025,54.517 "/>
<polygon fill="#21315B" points="36.243,49.982 39.606,49.982 39.606,50.694 37.04,50.694 37.04,51.874 39.313,51.874 39.313,52.588 
	37.04,52.588 37.04,53.805 39.639,53.805 39.639,54.517 36.243,54.517 "/>
<polygon fill="#21315B" points="40.422,49.982 41.162,49.982 43.589,53.116 43.589,49.982 44.375,49.982 44.375,54.517 
	43.708,54.517 41.208,51.288 41.208,54.517 40.422,54.517 "/>
<polygon fill="#21315B" points="46.443,50.721 45.007,50.721 45.007,49.982 48.686,49.982 48.686,50.721 47.248,50.721 
	47.248,54.516 46.443,54.516 "/>
<path fill="#21315B" d="M19.164,45.728l1.934-2.318c1.341,1.106,2.743,1.809,4.446,1.809c1.339,0,2.149-0.533,2.149-1.405v-0.043
	c0-0.829-0.512-1.253-3-1.892c-2.998-0.766-4.934-1.595-4.934-4.55v-0.044c0-2.7,2.17-4.485,5.211-4.485
	c2.169,0,4.02,0.68,5.531,1.892l-1.703,2.468c-1.319-0.914-2.616-1.468-3.872-1.468c-1.254,0-1.913,0.574-1.913,1.298v0.041
	c0,0.979,0.635,1.298,3.21,1.957c3.019,0.786,4.721,1.872,4.721,4.467v0.042c0,2.956-2.255,4.614-5.464,4.614
	C23.224,48.109,20.95,47.323,19.164,45.728"/>
<path fill="#C62034" d="M11.454,5.306c-0.308,0.01-0.493,0.189-0.559,0.548c0,0-0.073,0.532-0.158,1.441
	c-0.075,0.83-0.169,2.147-0.169,3.713c0,3.527,0.461,8.538,2.657,12.38c1.685,2.93,4.064,4.581,6.72,4.667
	c-1.036-0.792-2.269-2.104-2.922-4.146c-0.619-1.937-0.931-4.229-0.931-6.808c0-3.562,0.596-6.616,0.778-7.466
	c0.006-0.023,0.01-0.037,0.01-0.043c0.107-0.496,0.394-0.891,0.776-1.091c-2.708-1.739-5.037-2.76-5.488-2.952
	c-0.268-0.124-0.413-0.178-0.415-0.178h-0.005l-0.004-0.002C11.647,5.327,11.548,5.306,11.454,5.306"/>
<path fill="#C62034" d="M34.52,9.425c-0.065,0-0.141,0.032-0.229,0.096c0,0.004-0.084,0.066-0.236,0.197
	c-0.155,0.124-0.376,0.313-0.681,0.583c-0.407,0.362-1.23,1.128-2.198,2.188c-1.524,1.7-3.548,4.378-4.511,7.481
	c-0.554,1.81-0.829,3.378-0.82,4.659c-0.011,0.959,0.142,1.77,0.452,2.411c0.292,0.628,0.743,1.073,1.374,1.363
	c0.263,0.117,0.6,0.178,0.998,0.178h0.02c1.853,0,4.943-1.546,6.008-4.983c0.572-1.851,0.866-4.037,0.866-6.496
	c0-3.053-0.445-5.712-0.636-6.713c-0.075-0.371-0.115-0.571-0.115-0.571C34.766,9.643,34.678,9.425,34.52,9.425"/>
<path fill="#C62034" d="M18.224,9.425c-0.161,0-0.259,0.215-0.313,0.398c-0.008,0.034-0.048,0.23-0.115,0.567
	c-0.052,0.256-0.154,0.801-0.265,1.574c-0.173,1.206-0.38,3.076-0.38,5.138c0,2.499,0.295,4.679,0.874,6.485
	c1.086,3.444,4.255,4.993,6.155,4.993h0.02c0.401,0,0.752-0.064,1.048-0.191c0.155-0.064,0.304-0.144,0.473-0.258
	c-0.14-0.191-0.263-0.398-0.378-0.637c-0.37-0.771-0.556-1.707-0.565-2.865c0.008-1.429,0.308-3.099,0.887-4.969
	c0.05-0.172,0.11-0.346,0.169-0.517c0.023-0.066,0.046-0.132,0.069-0.202c-2.021-5.019-6.661-8.803-7.188-9.219
	c-0.166-0.135-0.251-0.198-0.251-0.198C18.373,9.459,18.29,9.425,18.224,9.425"/>
<path fill="#C62034" d="M26.357,1.208c-0.113,0-0.228,0.089-0.344,0.263c-0.002,0.003-0.096,0.141-0.251,0.398
	c-0.233,0.386-0.454,0.765-0.678,1.155c-0.5,0.887-1.262,2.321-2.043,4.105c-0.537,1.216-1.024,2.482-1.452,3.765
	c1.503,1.501,3.521,3.846,4.864,6.692c1.035-2.229,2.609-4.449,4.685-6.605c-1.416-4.296-3.404-7.799-4.196-9.112
	c-0.167-0.262-0.253-0.401-0.253-0.401C26.529,1.227,26.395,1.208,26.357,1.208"/>
<path fill="#C62034" d="M41.239,5.306c-0.061,0-0.158,0.012-0.281,0.063l-0.003,0.002h-0.004c-0.002,0-0.148,0.054-0.415,0.176
	c-0.259,0.105-0.6,0.267-1.034,0.47L39.35,6.089c-1.337,0.647-2.639,1.369-3.867,2.146c-0.142,0.08-0.282,0.168-0.421,0.259
	c0.382,0.194,0.673,0.593,0.782,1.093c0.004,0.012,0.006,0.026,0.01,0.049c0.181,0.852,0.769,3.906,0.769,7.466
	c0,2.565-0.306,4.856-0.908,6.807c-0.648,2.051-1.849,3.36-2.859,4.145c2.614-0.123,4.96-1.769,6.624-4.665
	c2.196-3.843,2.657-8.854,2.657-12.38c0-1.249-0.058-2.501-0.171-3.724c-0.082-0.898-0.156-1.431-0.158-1.437
	C41.742,5.495,41.553,5.316,41.239,5.306"/>
<path fill="#C62034" d="M33.977,2.322c-0.032,0-0.068,0.003-0.103,0.01h-0.003h-0.003c-0.081,0.008-0.167,0.042-0.25,0.103
	l-0.006,0.001L33.611,2.44c-0.006,0.001-0.582,0.355-1.467,0.992c-0.49,0.353-1.272,0.933-2.227,1.725
	c0.692,1.441,1.314,2.912,1.848,4.376c1.141-0.898,2.393-1.754,3.812-2.61c-0.4-2.036-0.86-3.551-1.042-4.115
	c-0.008-0.019-0.011-0.031-0.016-0.043C34.409,2.473,34.229,2.322,33.977,2.322"/>
<path fill="#C62034" d="M18.723,2.322c-0.246,0-0.428,0.151-0.54,0.442c-0.003,0.012-0.006,0.024-0.014,0.043
	c-0.182,0.564-0.642,2.079-1.043,4.115c1.419,0.856,2.669,1.711,3.81,2.61c0.508-1.421,1.13-2.893,1.851-4.376
	c-0.754-0.627-1.504-1.206-2.227-1.725c-0.888-0.637-1.462-0.991-1.469-0.992l-0.003-0.004l-0.003-0.001
	c-0.085-0.06-0.167-0.094-0.25-0.103h-0.004h-0.002C18.793,2.325,18.757,2.322,18.723,2.322"/>
<path fill="#C62034" d="M5.917,11.854c-0.771,0-1.214,0.022-1.22,0.022c-0.304,0.018-0.583,0.185-0.768,0.457
	c-0.109,0.163-0.165,0.363-0.155,0.565c0.054,0.531,0.406,2.448,2.696,5.335c1.174-0.583,2.339-1.094,3.466-1.524
	c-0.233-1.439-0.372-3.01-0.413-4.675c-1.401-0.131-2.504-0.17-3.192-0.179C6.185,11.854,6.047,11.854,5.917,11.854"/>
<path fill="#C62034" d="M46.783,11.854c-0.128,0-0.265,0-0.414,0.001c-0.687,0.009-1.79,0.046-3.192,0.179
	c-0.036,1.604-0.177,3.174-0.413,4.675c1.128,0.429,2.294,0.94,3.467,1.524c2.295-2.895,2.646-4.816,2.7-5.339
	c0.017-0.178-0.081-0.451-0.158-0.56c-0.186-0.272-0.464-0.439-0.769-0.458C48.002,11.876,47.549,11.854,46.783,11.854"/>
<path fill="#C62034" d="M42.574,17.779c-0.47,2.361-1.203,4.425-2.181,6.137c-1.02,1.793-2.296,3.151-3.798,4.049
	c10.896-0.591,13.972-4.097,14.292-4.503l0.001-0.002c0.108-0.165,0.162-0.346,0.162-0.54c0-0.313-0.146-0.619-0.383-0.796
	c0,0-0.127-0.084-0.355-0.239l-0.003-0.002l-0.004-0.003c-0.171-0.129-0.422-0.293-0.736-0.501
	c-0.084-0.054-0.174-0.111-0.263-0.171c-0.781-0.501-2.036-1.259-3.574-2.03C44.667,18.641,43.606,18.171,42.574,17.779"/>
<path fill="#C62034" d="M10.13,17.779c-3.676,1.392-6.634,3.33-7.746,4.106c-0.222,0.155-0.348,0.241-0.352,0.245
	c-0.234,0.171-0.381,0.477-0.381,0.79c0,0.193,0.054,0.373,0.16,0.536c0.01,0.012,0.016,0.021,0.021,0.03
	c0.022,0.024,0.044,0.051,0.071,0.084c0.012,0.015,0.026,0.032,0.043,0.051c0.074,0.083,0.249,0.262,0.521,0.493
	c0.459,0.391,1.282,0.982,2.61,1.58c2.743,1.244,6.548,2.029,11.03,2.281c-1.485-0.896-2.789-2.285-3.798-4.06
	C11.332,22.204,10.598,20.141,10.13,17.779"/>
<path fill="#C62034" d="M41.207,28.763c-0.559,0-1.383,0.113-2.634,0.286c-0.187,0.025-0.379,0.05-0.583,0.08
	c-0.545,0.078-1.211,0.113-2.096,0.113c-0.542,0-1.1-0.012-1.696-0.026l-0.055-0.002c-0.565-0.012-1.205-0.027-1.847-0.027
	c-1.336,0-3.061,0.055-4.583,0.479c-0.077,0.023-0.133,0.106-0.125,0.158c0.008,0.05,0.102,0.067,0.18,0.067
	c0.022,0,0.048-0.001,0.072-0.004c0.602-0.053,1.187-0.08,1.737-0.08c1.984,0,3.34,0.342,4.654,0.673
	c1.23,0.312,2.396,0.605,4.015,0.605c1.726,0,3.095-0.367,3.657-0.984c0.188-0.206,0.272-0.432,0.252-0.672
	C42.109,28.968,41.962,28.763,41.207,28.763"/>
<path fill="#C62034" d="M11.492,28.763c-0.752,0-0.899,0.205-0.946,0.668c-0.022,0.236,0.06,0.462,0.246,0.667
	c0.551,0.61,1.956,0.987,3.665,0.987c1.619,0,2.783-0.293,4.016-0.605c1.312-0.332,2.667-0.673,4.654-0.673
	c0.547,0,1.134,0.027,1.736,0.08c0.026,0.003,0.05,0.004,0.071,0.004c0.08,0,0.174-0.017,0.182-0.067
	c0.007-0.052-0.046-0.135-0.126-0.158c-1.52-0.424-3.247-0.479-4.58-0.479h-0.001c-0.642,0-1.283,0.015-1.848,0.027l-0.055,0.002
	c-0.593,0.014-1.153,0.026-1.696,0.026c-0.883,0-1.55-0.035-2.1-0.113c-0.205-0.029-0.406-0.056-0.594-0.083
	C12.869,28.876,12.046,28.763,11.492,28.763"/>
<polygon fill="#21315B" points="68.978,24.439 64.768,24.439 64.768,22.277 75.536,22.277 75.536,24.439 71.326,24.439 
	71.326,35.547 68.978,35.547 "/>
<path fill="#21315B" d="M75.593,25.539h2.291v2.257c0.628-1.499,1.785-2.522,3.544-2.446v2.427h-0.131
	c-2.01,0-3.414,1.307-3.414,3.961v3.81h-2.291V25.539z"/>
<path fill="#21315B" d="M81.506,32.667v-0.039c0-2.161,1.687-3.224,4.133-3.224c1.117,0,1.915,0.171,2.693,0.418v-0.247
	c0-1.421-0.873-2.179-2.483-2.179c-1.118,0-1.952,0.247-2.865,0.626l-0.605-1.802c1.101-0.493,2.18-0.814,3.772-0.814
	c1.498,0,2.619,0.399,3.319,1.117c0.74,0.721,1.08,1.782,1.08,3.091v5.933h-2.237v-1.25c-0.681,0.815-1.724,1.459-3.258,1.459
	C83.175,35.756,81.506,34.676,81.506,32.667 M88.368,31.946v-0.681c-0.587-0.228-1.362-0.399-2.275-0.399
	c-1.479,0-2.349,0.626-2.349,1.668v0.038c0,0.967,0.855,1.516,1.951,1.516C87.211,34.087,88.368,33.216,88.368,31.946"/>
<path fill="#21315B" d="M92.52,25.539h2.293v1.535c0.646-0.929,1.574-1.744,3.129-1.744c2.256,0,3.563,1.516,3.563,3.829v6.389
	H99.21v-5.687c0-1.555-0.776-2.445-2.144-2.445c-1.325,0-2.253,0.927-2.253,2.482v5.649H92.52V25.539z"/>
<path fill="#21315B" d="M102.684,34.24l1.02-1.555c1.101,0.815,2.254,1.232,3.28,1.232c0.987,0,1.556-0.417,1.556-1.08v-0.038
	c0-0.779-1.065-1.042-2.238-1.403c-1.477-0.417-3.125-1.023-3.125-2.939V28.42c0-1.897,1.572-3.052,3.56-3.052
	c1.252,0,2.618,0.437,3.68,1.137l-0.911,1.631c-0.965-0.588-1.989-0.948-2.827-0.948c-0.889,0-1.4,0.416-1.4,0.986v0.037
	c0,0.74,1.08,1.042,2.254,1.422c1.461,0.455,3.109,1.118,3.109,2.919v0.038c0,2.105-1.628,3.147-3.715,3.147
	C105.507,35.737,103.933,35.227,102.684,34.24"/>
<path fill="#21315B" d="M112.218,25.538h2.293v1.668c0.739-1.042,1.783-1.876,3.408-1.876c2.353,0,4.649,1.858,4.649,5.194v0.037
	c0,3.319-2.279,5.195-4.649,5.195c-1.662,0-2.708-0.834-3.408-1.762v4.587h-2.293V25.538z M120.234,30.561v-0.037
	c0-1.935-1.305-3.204-2.865-3.204c-1.554,0-2.914,1.289-2.914,3.204v0.037c0,1.917,1.36,3.205,2.914,3.205
	C118.946,33.766,120.234,32.533,120.234,30.561"/>
<path fill="#21315B" d="M123.61,30.6v-0.039c0-2.862,2.271-5.231,5.344-5.231c3.072,0,5.327,2.332,5.327,5.194v0.037
	c0,2.846-2.274,5.214-5.365,5.214C125.86,35.775,123.61,33.443,123.61,30.6 M131.986,30.6v-0.039c0-1.762-1.269-3.222-3.07-3.222
	c-1.838,0-3.011,1.441-3.011,3.185v0.037c0,1.746,1.268,3.205,3.049,3.205C130.812,33.766,131.986,32.325,131.986,30.6"/>
<path fill="#21315B" d="M135.836,25.539h2.292v2.257c0.625-1.499,1.784-2.522,3.546-2.446v2.427h-0.134
	c-2.009,0-3.412,1.307-3.412,3.961v3.81h-2.292V25.539z"/>
<path fill="#21315B" d="M143.361,32.78v-5.269h-1.273v-1.974h1.273V22.79h2.296v2.748h2.691v1.974h-2.691v4.908
	c0,0.89,0.453,1.25,1.231,1.25c0.512,0,0.966-0.112,1.42-0.34v1.877c-0.565,0.322-1.195,0.512-2.066,0.512
	C144.555,35.719,143.361,34.98,143.361,32.78"/>
<path fill="#21315B" d="M65.961,46.467h-1.272v-1.916h1.272v-0.738c0-1.1,0.287-1.934,0.814-2.466
	c0.532-0.529,1.272-0.795,2.258-0.795c0.794,0,1.343,0.114,1.857,0.266v1.934c-0.458-0.153-0.854-0.247-1.347-0.247
	c-0.87,0-1.326,0.472-1.326,1.517v0.549h2.652v1.896h-2.619v8.037h-2.292V46.467z"/>
<path fill="#21315B" d="M70.89,49.557v-0.038c0-2.863,2.273-5.232,5.346-5.232s5.327,2.331,5.327,5.194v0.038
	c0,2.845-2.273,5.212-5.368,5.212C73.146,54.731,70.89,52.4,70.89,49.557 M79.269,49.557v-0.038c0-1.763-1.27-3.223-3.074-3.223
	c-1.837,0-3.013,1.442-3.013,3.185v0.038c0,1.744,1.271,3.204,3.053,3.204C78.093,52.723,79.269,51.282,79.269,49.557"/>
<path fill="#21315B" d="M82.945,44.494h2.293v2.257c0.628-1.499,1.783-2.521,3.547-2.446v2.426h-0.131
	c-2.013,0-3.416,1.309-3.416,3.963v3.809h-2.293V44.494z"/>
<polygon fill="#21315B" points="95.004,41.234 97.165,41.234 104.276,50.41 104.276,41.234 106.568,41.234 106.568,54.503 
	104.613,54.503 97.296,45.064 97.296,54.503 95.004,54.503 "/>
<path fill="#21315B" d="M107.951,52.57l1.403-1.667c1.269,1.101,2.558,1.725,4.189,1.725c1.441,0,2.349-0.681,2.349-1.667v-0.038
	c0-0.947-0.532-1.46-2.996-2.029c-2.824-0.683-4.417-1.516-4.417-3.961v-0.038c0-2.277,1.897-3.851,4.533-3.851
	c1.932,0,3.466,0.589,4.815,1.671l-1.252,1.762c-1.194-0.892-2.386-1.366-3.6-1.366c-1.367,0-2.165,0.702-2.165,1.574v0.038
	c0,1.024,0.608,1.479,3.167,2.084c2.803,0.686,4.249,1.688,4.249,3.888v0.037c0,2.484-1.954,3.962-4.74,3.962
	C111.457,54.694,109.542,53.993,107.951,52.57"/>
<polygon fill="#21315B" points="118.341,41.234 120.86,41.234 124.024,51.074 127.288,41.197 129.261,41.197 132.518,51.074 
	135.681,41.234 138.131,41.234 133.524,54.6 131.495,54.6 128.234,45.064 124.976,54.6 122.964,54.6 "/>
</svg>
